<svg width="92" height="92" viewBox="0 0 92 92" fill="none" xmlns="http://www.w3.org/2000/svg">
<g filter="url(#filter0_d_63_608)">
<path d="M24 24C24 21.7909 25.7909 20 28 20H64C66.2091 20 68 21.7909 68 24V60C68 62.2091 66.2091 64 64 64H28C25.7909 64 24 62.2091 24 60V24Z" fill="#6088DB"/>
<path d="M45 49C49.4183 49 53 45.4183 53 41C53 36.5817 49.4183 33 45 33C40.5817 33 37 36.5817 37 41C37 45.4183 40.5817 49 45 49Z" stroke="white" stroke-width="2" stroke-linecap="round" stroke-linejoin="round"/>
<path d="M55 51L51 47" stroke="white" stroke-width="2" stroke-linecap="round" stroke-linejoin="round"/>
</g>
<defs>
<filter id="filter0_d_63_608" x="0" y="0" width="92" height="92" filterUnits="userSpaceOnUse" color-interpolation-filters="sRGB">
<feFlood flood-opacity="0" result="BackgroundImageFix"/>
<feColorMatrix in="SourceAlpha" type="matrix" values="0 0 0 0 0 0 0 0 0 0 0 0 0 0 0 0 0 0 127 0" result="hardAlpha"/>
<feOffset dy="4"/>
<feGaussianBlur stdDeviation="12"/>
<feComposite in2="hardAlpha" operator="out"/>
<feColorMatrix type="matrix" values="0 0 0 0 0 0 0 0 0 0.166667 0 0 0 0 0.416667 0 0 0 0.2 0"/>
<feBlend mode="normal" in2="BackgroundImageFix" result="effect1_dropShadow_63_608"/>
<feBlend mode="normal" in="SourceGraphic" in2="effect1_dropShadow_63_608" result="shape"/>
</filter>
</defs>
</svg>
